<?xml version="1.0" encoding="UTF-8" standalone="no"?>
<!DOCTYPE svg PUBLIC "-//W3C//DTD SVG 1.1//EN"
 "http://www.w3.org/Graphics/SVG/1.1/DTD/svg11.dtd">
<!-- Generated by graphviz version 3.0.0 (0)
 -->
<!-- Pages: 1 -->
<svg width="417pt" height="306pt"
 viewBox="0.00 0.00 417.29 306.00" xmlns="http://www.w3.org/2000/svg" xmlns:xlink="http://www.w3.org/1999/xlink">
<g id="graph0" class="graph" transform="scale(1 1) rotate(0) translate(4 302)">
<polygon fill="white" stroke="transparent" points="-4,4 -4,-302 413.29,-302 413.29,4 -4,4"/>
<!-- se bl2 -->
<g id="node1" class="node">
<title>se bl2</title>
<polygon fill="none" stroke="black" points="298.29,-196 243.83,-178 298.29,-160 352.75,-178 298.29,-196"/>
<text text-anchor="middle" x="298.29" y="-174.3" font-family="Times,serif" font-size="14.00">se bl2</text>
</g>
<!-- host bl2 -->
<g id="node2" class="node">
<title>host bl2</title>
<polygon fill="none" stroke="black" points="273.29,-123 199.29,-123 199.29,-87 273.29,-87 273.29,-123"/>
<text text-anchor="middle" x="236.29" y="-101.3" font-family="Times,serif" font-size="14.00">host bl2</text>
</g>
<!-- se bl2&#45;&gt;host bl2 -->
<g id="edge3" class="edge">
<title>se bl2&#45;&gt;host bl2</title>
<path fill="none" stroke="black" d="M258.68,-172.75C258.68,-172.75 258.68,-133.27 258.68,-133.27"/>
<polygon fill="black" stroke="black" points="262.18,-133.27 258.68,-123.27 255.18,-133.27 262.18,-133.27"/>
<text text-anchor="middle" x="233.18" y="-141.81" font-family="Times,serif" font-size="14.00">copy &amp;</text>
<text text-anchor="middle" x="233.18" y="-126.81" font-family="Times,serif" font-size="14.00"> start</text>
</g>
<!-- se tfm -->
<g id="node3" class="node">
<title>se tfm</title>
<polygon fill="none" stroke="black" points="392.29,-36 330.29,-36 330.29,0 392.29,0 392.29,-36"/>
<text text-anchor="middle" x="361.29" y="-14.3" font-family="Times,serif" font-size="14.00">se tfm</text>
</g>
<!-- se bl2&#45;&gt;se tfm -->
<g id="edge2" class="edge">
<title>se bl2&#45;&gt;se tfm</title>
<path fill="none" stroke="black" d="M341.41,-174.04C341.41,-174.04 341.41,-46.02 341.41,-46.02"/>
<polygon fill="black" stroke="black" points="344.91,-46.02 341.41,-36.02 337.91,-46.02 344.91,-46.02"/>
<text text-anchor="middle" x="385.29" y="-108.8" font-family="Times,serif" font-size="14.00">load &amp;</text>
<text text-anchor="middle" x="385.29" y="-93.8" font-family="Times,serif" font-size="14.00"> start</text>
</g>
<!-- host bl31 -->
<g id="node4" class="node">
<title>host bl31</title>
<polygon fill="none" stroke="black" points="124.37,-18 93.33,-36 31.25,-36 0.21,-18 31.25,0 93.33,0 124.37,-18"/>
<text text-anchor="middle" x="62.29" y="-14.3" font-family="Times,serif" font-size="14.00">host bl31</text>
</g>
<!-- host bl2&#45;&gt;host bl31 -->
<g id="edge5" class="edge">
<title>host bl2&#45;&gt;host bl31</title>
<path fill="none" stroke="black" d="M198.96,-105C147.84,-105 62.29,-105 62.29,-105 62.29,-105 62.29,-46.03 62.29,-46.03"/>
<polygon fill="black" stroke="black" points="65.79,-46.03 62.29,-36.03 58.79,-46.03 65.79,-46.03"/>
<text text-anchor="middle" x="56.14" y="-108.8" font-family="Times,serif" font-size="14.00">copy &amp; start</text>
</g>
<!-- host zephyr -->
<g id="node5" class="node">
<title>host zephyr</title>
<polygon fill="none" stroke="black" points="311.89,-18 274.09,-36 198.49,-36 160.69,-18 198.49,0 274.09,0 311.89,-18"/>
<text text-anchor="middle" x="236.29" y="-14.3" font-family="Times,serif" font-size="14.00">host zephyr</text>
</g>
<!-- host bl2&#45;&gt;host zephyr -->
<g id="edge4" class="edge">
<title>host bl2&#45;&gt;host zephyr</title>
<path fill="none" stroke="black" d="M236.29,-86.97C236.29,-86.97 236.29,-46 236.29,-46"/>
<polygon fill="black" stroke="black" points="239.79,-46 236.29,-36 232.79,-46 239.79,-46"/>
<text text-anchor="middle" x="253.29" y="-57.8" font-family="Times,serif" font-size="14.00">copy</text>
</g>
<!-- host bl31&#45;&gt;host zephyr -->
<g id="edge6" class="edge">
<title>host bl31&#45;&gt;host zephyr</title>
<path fill="none" stroke="black" d="M124.62,-18C124.62,-18 150.42,-18 150.42,-18"/>
<polygon fill="black" stroke="black" points="150.42,-21.5 160.42,-18 150.42,-14.5 150.42,-21.5"/>
<text text-anchor="middle" x="146.27" y="-6.8" font-family="Times,serif" font-size="14.00">start</text>
</g>
<!-- se bl1 -->
<g id="node6" class="node">
<title>se bl1</title>
<ellipse fill="none" stroke="black" cx="298.29" cy="-280" rx="38.19" ry="18"/>
<text text-anchor="middle" x="298.29" y="-276.3" font-family="Times,serif" font-size="14.00">se bl1</text>
</g>
<!-- se bl1&#45;&gt;se bl2 -->
<g id="edge1" class="edge">
<title>se bl1&#45;&gt;se bl2</title>
<path fill="none" stroke="black" d="M298.29,-261.76C298.29,-261.76 298.29,-206.08 298.29,-206.08"/>
<polygon fill="black" stroke="black" points="301.79,-206.08 298.29,-196.08 294.79,-206.08 301.79,-206.08"/>
<text text-anchor="middle" x="322.29" y="-232.8" font-family="Times,serif" font-size="14.00">load &amp;</text>
<text text-anchor="middle" x="322.29" y="-217.8" font-family="Times,serif" font-size="14.00"> start</text>
</g>
</g>
</svg>
